<?xml version="1.0" encoding="utf-8"?>
<!-- Generator: Adobe Illustrator 17.1.0, SVG Export Plug-In . SVG Version: 6.00 Build 0)  -->
<!DOCTYPE svg PUBLIC "-//W3C//DTD SVG 1.1//EN" "http://www.w3.org/Graphics/SVG/1.1/DTD/svg11.dtd">
<svg version="1.1" id="Layer_1" xmlns="http://www.w3.org/2000/svg" xmlns:xlink="http://www.w3.org/1999/xlink" x="0px" y="0px"
	 viewBox="0 0 518.491 141.08" enable-background="new 0 0 518.491 141.08" xml:space="preserve">
<polygon fill="#FFFFFF" points="95.898,1.234 69.617,114.026 40.489,1.234 0,1.234 0,141.08 1.105,141.08 1.105,7.897 5.675,7.897 
	41.904,141.08 64.325,141.08 95.202,8.513 99.836,8.513 99.836,141.08 135.728,141.08 135.728,1.234 "/>
<path fill="#FFFFFF" d="M193.033,29.863l20.775,62.561h-43.22L193.033,29.863z M203.49,0l-52.367,141.079h1.889l17.244-48.374
	h43.778l16.35,48.374h38.775l-0.388-1.055L217.409,0H203.49z"/>
<polygon fill="#FFFFFF" points="383.821,1.234 383.821,111.105 326.477,1.234 284.396,1.234 284.396,141.08 285.708,141.08 
	285.708,1.481 359.714,141.08 385.131,141.08 385.131,1.234 "/>
<path fill="#FFFFFF" d="M442.366,29.863l20.774,62.561h-43.221L442.366,29.863z M452.822,0l-52.366,141.079h1.887l17.244-48.374
	h43.782l16.346,48.374h38.776l-0.387-1.055L466.741,0H452.822z"/>
<rect x="284.395" y="1.234" fill="#FFFFFF" width="14.732" height="7.305"/>
</svg>
